HIERARCHY
ROOT Hips
{
	OFFSET 0.000000 0.000000 0.000000 
	CHANNELS 6 Xposition Yposition Zposition Zrotation Yrotation Xrotation
	JOINT LeftUpLeg
	{
		OFFSET 1.363060 -1.794630 0.839290 
		CHANNELS 3 Zrotation Yrotation Xrotation
		JOINT LeftLeg
		{
			OFFSET 2.448110 -6.726130 0.000000 
			CHANNELS 3 Zrotation Yrotation Xrotation
			JOINT LeftFoot
			{
				OFFSET 2.562200 -7.039590 0.000000 
				CHANNELS 3 Zrotation Yrotation Xrotation
				JOINT LeftToeBase
				{
					OFFSET 0.157640 -0.433110 2.322550 
					CHANNELS 3 Zrotation Yrotation Xrotation
					End Site
					{
						OFFSET 0.000000 0.000000 0.000000 
					}
				}
			}
		}
	}
	JOINT RightUpLeg
	{
		OFFSET -1.305520 -1.794630 0.839290 
		CHANNELS 3 Zrotation Yrotation Xrotation
		JOINT RightLeg
		{
			OFFSET -2.542530 -6.985550 0.000000 
			CHANNELS 3 Zrotation Yrotation Xrotation
			JOINT RightFoot
			{
				OFFSET -2.568260 -7.056230 0.000000 
				CHANNELS 3 Zrotation Yrotation Xrotation
				JOINT RightToeBase
				{
					OFFSET -0.164730 -0.452590 2.363150 
					CHANNELS 3 Zrotation Yrotation Xrotation
					End Site
					{
						OFFSET 0.000000 0.000000 0.000000 
					}
				}
			}
		}
	}
	JOINT Spine
	{
		OFFSET 0.028270 2.035590 -0.193380 
		CHANNELS 3 Zrotation Yrotation Xrotation
		JOINT Spine1
		{
			OFFSET 0.056720 2.048850 -0.042750 
			CHANNELS 3 Zrotation Yrotation Xrotation
			JOINT Neck1
			{
				OFFSET -0.054170 1.746240 0.172020 
				CHANNELS 3 Zrotation Yrotation Xrotation
				JOINT Head
				{
					OFFSET 0.104070 1.761360 -0.123970 
					CHANNELS 3 Zrotation Yrotation Xrotation
					End Site
					{
						OFFSET 0.000000 0.000000 0.000000 
					}
				}
			}
			JOINT LeftArm
			{
				OFFSET 3.362410 1.200890 -0.311210 
				CHANNELS 3 Zrotation Yrotation Xrotation
				JOINT LeftForeArm
				{
					OFFSET 4.983000 -0.000000 -0.000000 
					CHANNELS 3 Zrotation Yrotation Xrotation
					JOINT LeftHand
					{
						OFFSET 3.483560 -0.000000 -0.000000 
						CHANNELS 3 Zrotation Yrotation Xrotation
						JOINT LeftHandIndex1
						{
							OFFSET 0.715260 -0.000000 -0.000000 
							CHANNELS 3 Zrotation Yrotation Xrotation
							End Site
							{
								OFFSET 0.000000 0.000000 0.000000 
							}
						}
					}
				}
			}
			JOINT RightArm
			{
				OFFSET -3.136600 1.374050 -0.404650 
				CHANNELS 3 Zrotation Yrotation Xrotation
				JOINT RightForeArm
				{
					OFFSET -5.241900 -0.000000 -0.000000 
					CHANNELS 3 Zrotation Yrotation Xrotation
					JOINT RightHand
					{
						OFFSET -3.444170 -0.000000 -0.000000 
						CHANNELS 3 Zrotation Yrotation Xrotation
						JOINT RightHandIndex1
						{
							OFFSET -0.622530 -0.000000 -0.000000 
							CHANNELS 3 Zrotation Yrotation Xrotation
							End Site
							{
								OFFSET 0.000000 0.000000 0.000000 
							}
						}
					}
				}
			}
		}
	}
}
MOTION
Frames: 12
Frame Time: 0.041667
6.111000 18.096343 8.455861 179.443360 0.284149 -173.373008 -15.193038 -7.049802 -0.476969 0.008585 0.312873 2.352858 -1.153304 9.902674 -6.825639 0.090800 -1.943400 -5.349200 18.266070 13.781381 -0.345803 -1.647583 -2.616378 9.921111 0.768225 -17.413366 -13.138702 -0.593400 -4.931700 13.713800 0.114040 0.154856 4.709393 -2.818531 -0.157605 -1.438614 2.635801 -4.280341 10.870448 1.050500 -2.213900 6.714800 -74.734716 -7.746892 50.082516 140.347497 -49.647078 -102.706105 1.746101 -0.996458 13.088284 -7.125000 0.000000 0.000000 77.512902 5.038513 46.120156 -140.269440 49.152245 -101.007869 0.746961 -0.909530 10.264563 7.125000 0.000000 0.000000 
6.110044 18.095004 8.452896 179.472338 0.341947 -173.354059 -15.193367 -6.923831 -0.281291 -0.002716 0.166515 1.932680 -1.188010 10.118611 -6.637452 0.076500 -1.784600 -4.910700 18.263655 13.866212 -0.365120 -1.651482 -2.638856 9.984694 0.780220 -17.516503 -13.158086 -0.524100 -4.639300 12.882700 0.162570 0.126768 4.631729 -2.743164 -0.172825 -1.465531 2.368488 -4.193747 11.333986 0.972600 -2.189900 6.862000 -73.540639 -8.249618 47.880591 141.475699 -48.961602 -103.272790 1.746568 -1.012306 14.371611 -7.125000 0.000000 0.000000 76.220609 5.327225 44.079740 -141.431174 48.494582 -101.679681 0.789470 -1.069205 11.311319 7.125000 0.000000 0.000000 
6.108227 18.093761 8.449550 179.472769 0.238355 -173.395930 -15.210462 -6.861745 0.260697 -0.021077 -0.144441 1.039214 -1.251970 10.521507 -6.233494 0.086600 -1.898200 -5.224500 18.267455 13.775840 -0.357548 -1.657164 -2.692225 10.127976 0.765617 -17.518617 -13.507486 -0.505200 -4.556500 12.647800 0.218362 0.066669 4.558356 -2.666152 -0.202306 -1.511137 1.997101 -4.159427 11.610118 0.858200 -2.199900 6.931000 -72.334621 -8.603252 45.629240 142.348031 -48.404683 -103.700920 1.726379 -1.072349 15.469349 -7.125000 0.000000 0.000000 74.828510 5.600739 42.180225 -142.603300 47.766909 -102.547397 0.723098 -0.982869 10.948437 7.125000 0.000000 0.000000 
6.107749 18.089650 8.448115 179.418544 0.132226 -173.441109 -15.266564 -6.959634 0.330147 -0.020359 -0.145353 1.039614 -1.253952 10.532729 -6.227826 0.119900 -2.232200 -6.147900 18.225716 13.670376 -0.335735 -1.662817 -2.734491 10.236635 0.724224 -17.313761 -13.808731 -0.563200 -4.806900 13.358600 0.249710 -0.017851 4.516565 -2.548196 -0.249104 -1.556271 1.829045 -4.160392 11.705492 0.819700 -2.216200 6.950500 -70.983039 -8.873155 43.345221 143.164734 -47.820171 -104.138826 1.685983 -1.105537 16.183996 -7.125000 0.000000 0.000000 73.326356 5.931113 40.202268 -143.418282 47.273877 -102.974183 0.790494 -1.130648 11.957467 7.125000 0.000000 0.000000 
6.109852 18.088598 8.443526 179.259495 0.262840 -173.486903 -15.449837 -6.824847 0.370233 -0.018818 -0.151053 1.044042 -1.232770 10.399662 -6.369763 0.120400 -2.236700 -6.160400 18.064267 13.790151 -0.274853 -1.666527 -2.759161 10.289021 0.720992 -17.313167 -13.776361 -0.534100 -4.682700 13.005700 0.176860 -0.018511 4.542797 -2.369835 -0.241367 -1.554266 1.782050 -4.144690 11.753854 0.822600 -2.216000 6.962700 -69.537963 -9.232824 41.052957 143.935845 -47.259203 -104.528040 1.655449 -1.110122 16.579506 -7.125000 0.000000 0.000000 71.856702 6.414711 38.316095 -143.715769 47.087294 -103.107446 0.762878 -1.200073 14.285039 7.125000 0.000000 0.000000 
6.112338 18.092327 8.439605 179.113982 0.368141 -173.499126 -15.604836 -6.721181 0.392209 -0.017797 -0.155801 1.047509 -1.218744 10.314174 -6.483805 0.094600 -1.983500 -5.460100 17.909686 13.908701 -0.282145 -1.668728 -2.780163 10.336732 0.745568 -17.509399 -13.698494 -0.501900 -4.541500 12.605400 0.087637 -0.024117 4.550734 -2.226007 -0.244222 -1.519484 1.969066 -4.141701 11.672251 0.908400 -2.209800 6.926300 -68.063939 -9.641161 38.804666 144.712109 -46.689882 -104.907641 1.637910 -1.087400 16.723598 -7.125000 0.000000 0.000000 70.451071 6.947297 36.392193 -144.628861 46.498430 -103.687631 0.778887 -1.232895 13.708024 7.125000 0.000000 0.000000 
6.112912 18.093666 8.435207 179.084892 0.362547 -173.460163 -15.623322 -6.729069 0.390739 -0.017537 -0.156264 1.048618 -1.213107 10.280211 -6.516534 0.081500 -1.841500 -5.067900 17.857411 13.920172 -0.302807 -1.668330 -2.788578 10.353045 0.739750 -17.521617 -13.834237 -0.524400 -4.640800 12.886800 0.083744 -0.032920 4.450358 -2.144212 -0.250178 -1.505159 2.134201 -4.204684 11.719329 0.979900 -2.238300 6.922300 -66.616648 -10.031961 36.680912 145.337810 -46.230055 -105.183637 1.626074 -1.067007 16.954414 -7.125000 0.000000 0.000000 69.043601 7.414847 34.169407 -145.976922 45.599781 -104.567083 0.795546 -1.230949 11.094703 7.125000 0.000000 0.000000 
6.115398 18.094909 8.428705 179.195318 0.364177 -173.420546 -15.492756 -6.718307 0.376453 -0.018660 -0.152422 1.047875 -1.209034 10.261108 -6.534835 0.090000 -1.935200 -5.326500 17.996060 13.929894 -0.258035 -1.664307 -2.764375 10.290324 0.734701 -17.469521 -13.882296 -0.596100 -4.942800 13.745400 0.136022 -0.019875 4.361219 -2.107564 -0.245646 -1.463442 2.141132 -4.251424 11.889791 0.985000 -2.264600 6.956200 -65.144233 -10.379310 34.509786 145.666440 -45.981409 -105.262834 1.606489 -1.078168 17.585083 -7.125000 0.000000 0.000000 67.591131 7.842114 32.021618 -146.691504 45.105549 -104.996530 0.794765 -1.252975 10.428261 7.125000 0.000000 0.000000 
6.118362 18.097586 8.423924 179.428763 0.321440 -173.364186 -15.213168 -6.751041 0.346304 -0.020982 -0.142257 1.046000 -1.198858 10.215408 -6.582300 0.084900 -1.879100 -5.171600 18.303697 13.921575 -0.258513 -1.661654 -2.735884 10.234893 0.751696 -17.514615 -13.815152 -0.665100 -5.215700 14.524900 0.126211 -0.054039 4.150258 -2.200257 -0.265703 -1.517501 2.121905 -4.232504 12.099075 0.969700 -2.256100 6.991600 -63.519665 -10.522187 32.247093 145.987315 -45.708481 -105.364890 1.569246 -1.086486 17.755354 -7.125000 0.000000 0.000000 66.244933 8.206047 30.051287 -147.064002 44.848685 -105.184332 0.788851 -1.299152 11.067830 7.125000 0.000000 0.000000 
6.117980 18.095482 8.416370 179.461926 0.374045 -173.328973 -15.189837 -6.699463 0.318229 -0.021280 -0.141572 1.045488 -1.200600 10.227677 -6.576885 0.088000 -1.913100 -5.265600 18.341984 13.993545 -0.255172 -1.663796 -2.741192 10.255040 0.753793 -17.525556 -13.815832 -0.657800 -5.187700 14.444600 -0.005604 -0.079038 4.104834 -2.234426 -0.281330 -1.451060 2.093150 -4.230771 12.124756 0.951000 -2.254000 6.986600 -61.895459 -10.758587 29.910090 146.439561 -45.304290 -105.591224 1.516884 -1.094237 16.781992 -7.125000 0.000000 0.000000 64.960543 8.700356 28.232442 -146.935538 44.932638 -105.040370 0.786570 -1.348209 13.529321 7.125000 0.000000 0.000000 
6.117119 18.092996 8.406712 179.321409 0.501198 -173.279436 -15.360281 -6.584433 0.291789 -0.020004 -0.145814 1.046407 -1.203912 10.244570 -6.577147 0.093300 -1.970100 -5.423100 18.186911 14.151974 -0.313689 -1.672704 -2.788822 10.381177 0.743196 -17.527804 -13.946000 -0.658800 -5.191300 14.455000 -0.315727 -0.046428 3.953892 -2.238481 -0.267920 -1.395391 2.043313 -4.244004 11.902462 0.921400 -2.260800 6.866300 -60.286839 -11.110942 27.748278 146.662365 -45.085323 -105.653870 1.474263 -1.095972 15.696649 -7.125000 0.000000 0.000000 63.636574 9.130142 26.440373 -147.141388 44.781867 -105.127873 0.798372 -1.382493 13.780594 7.125000 0.000000 0.000000 
6.117119 18.095387 8.400210 179.279514 0.531163 -173.151242 -15.380918 -6.582922 0.210365 -0.019722 -0.144909 1.047833 -1.195282 10.195663 -6.626825 0.105900 -2.098500 -5.777800 18.147253 14.291212 -0.565449 -1.692005 -2.874506 10.636862 0.730050 -17.546356 -14.216574 -0.620600 -5.041300 14.026300 -0.579905 -0.028000 3.687163 -2.285414 -0.260614 -1.360051 1.938309 -4.220692 11.625285 0.878300 -2.255900 6.704600 -58.701048 -11.507973 25.836154 146.591775 -45.088912 -105.524441 1.441714 -1.078528 15.127146 -7.125000 0.000000 0.000000 62.136899 9.418882 24.700999 -147.483658 44.531349 -105.309678 0.831463 -1.411778 12.778683 7.125000 0.000000 0.000000 
